# xmcd
#
# Track frame offsets:
#	150
#	13680
#	26978
#	37730
#	50900
#	66438
#	79920
#	93773
#	109023
#	121200
#
# Disc length: 1772 seconds
#
# Revision: 0
# Processed by: cddbd v1.5.2PL0 Copyright (c) Steve Scherf et al.
# Submitted via: audiograbber 1.83.01
#
DISCID=7f06ea0a
DTITLE=Ben E. King - Percy Sledge - Best Of 2 Super Artists
DYEAR=1989
DGENRE=
TTITLE0=Ben E. King - Stand By Me
TTITLE1=Ben E. King - Spanish Harlem
TTITLE2=Ben E. King - I (Who Have Nothing)
TTITLE3=Ben E. King - Don't Play That song (You Lied)
TTITLE4=Ben E. King - Supernatural Thing - Part 1
TTITLE5=Percy Sledge - When A Man Loves A Woman
TTITLE6=Percy Sledge - Take Time To Know Her
TTITLE7=Percy Sledge - Warm And Tender Love
TTITLE8=Percy Sledge - Tell It Like It Is
TTITLE9=Percy Sledge - (Sittin' On) The Dock Of The Bay
EXTD=
EXTT0=
EXTT1=
EXTT2=
EXTT3=
EXTT4=
EXTT5=
EXTT6=
EXTT7=
EXTT8=
EXTT9=
PLAYORDER=
